<?xml version="1.0" encoding="iso-8859-1"?>
<!-- Generator: Adobe Illustrator 19.0.0, SVG Export Plug-In . SVG Version: 6.00 Build 0)  -->
<svg version="1.1" id="Capa_1" xmlns="http://www.w3.org/2000/svg" xmlns:xlink="http://www.w3.org/1999/xlink" x="0px" y="0px"
	 viewBox="0 0 512 512" style="enable-background:new 0 0 512 512;" xml:space="preserve">
<g>
	<g>
		<g>
			<path d="M52.136,263.501h67.955c4.143,0,7.501-3.358,7.501-7.501s-3.358-7.501-7.501-7.501H52.137
				c-4.143,0-7.501,3.358-7.501,7.501C44.636,260.142,47.994,263.5,52.136,263.501z"/>
			<path d="M256,127.592c4.143,0,7.501-3.358,7.501-7.501V52.136c0-4.143-3.358-7.501-7.501-7.501c-4.143,0-7.501,3.358-7.501,7.501
				v67.954C248.499,124.233,251.857,127.591,256,127.592z"/>
			<path d="M175.232,373.756L90.34,458.648L53.351,421.66l284.872-284.873c2.929-2.93,2.929-7.678,0-10.608
				c-2.93-2.927-7.678-2.929-10.608,0L37.448,416.348c-0.003,0.003-0.006,0.005-0.009,0.008s-0.005,0.006-0.008,0.009
				l-25.397,25.397c-16.045,16.046-16.045,42.157,0.001,58.204C20.058,507.989,30.598,512,41.137,512s21.079-4.011,29.102-12.034
				L185.84,384.364c2.929-2.93,2.929-7.678,0-10.608C182.911,370.829,178.163,370.827,175.232,373.756z M59.63,489.358
				c-10.196,10.199-26.79,10.199-36.988,0.001c-10.197-10.198-10.197-26.792,0-36.989l20.101-20.101l36.988,36.988L59.63,489.358z"
				/>
			<path d="M154.594,165.202c1.465,1.464,3.385,2.196,5.304,2.196s3.839-0.732,5.304-2.196c2.929-2.93,2.929-7.678,0-10.608
				l-48.051-48.051c-2.93-2.928-7.678-2.928-10.608,0c-2.929,2.93-2.929,7.678,0,10.608L154.594,165.202z"/>
			<path d="M459.862,248.499h-67.954c-4.143,0-7.501,3.358-7.501,7.501s3.358,7.501,7.501,7.501h67.954
				c4.143,0,7.501-3.358,7.501-7.501S464.006,248.499,459.862,248.499z"/>
			<path d="M357.405,346.797c-2.93-2.928-7.678-2.928-10.608,0c-2.929,2.93-2.929,7.678,0,10.608l48.052,48.051
				c1.465,1.464,3.385,2.196,5.304,2.196s3.839-0.732,5.304-2.196c2.929-2.93,2.929-7.678,0-10.608L357.405,346.797z"/>
			<path d="M96.246,415.753c1.465,1.464,3.384,2.196,5.304,2.196c1.919,0,3.839-0.732,5.304-2.196l308.9-308.899
				c2.929-2.93,2.929-7.678,0-10.608c-2.929-2.927-7.677-2.929-10.608,0l-308.9,308.899
				C93.317,408.075,93.317,412.823,96.246,415.753z"/>
			<path d="M499.965,12.033c-16.046-16.045-42.156-16.043-58.204,0l-25.4,25.4c-0.002,0.001-0.004,0.003-0.006,0.005
				s-0.003,0.004-0.005,0.006l-65.193,65.195c-2.929,2.929-2.929,7.677,0,10.607c2.93,2.928,7.678,2.928,10.608,0l59.894-59.895
				l36.988,36.988l-258.419,258.42c-2.929,2.93-2.929,7.678,0,10.608c1.465,1.464,3.385,2.196,5.304,2.196s3.839-0.732,5.304-2.196
				l289.13-289.129C516.012,54.191,516.012,28.08,499.965,12.033z M489.357,59.63l-20.101,20.101l-36.988-36.988l20.1-20.101
				c10.199-10.196,26.792-10.197,36.989,0C499.555,32.839,499.555,49.433,489.357,59.63z"/>
			<path d="M255.999,384.408c-4.143,0-7.501,3.358-7.501,7.501v67.955c0,4.143,3.358,7.501,7.501,7.501
				c4.143,0,7.501-3.358,7.501-7.501v-67.955C263.5,387.766,260.143,384.408,255.999,384.408z"/>
		</g>
	</g>
</g>
<g>
</g>
<g>
</g>
<g>
</g>
<g>
</g>
<g>
</g>
<g>
</g>
<g>
</g>
<g>
</g>
<g>
</g>
<g>
</g>
<g>
</g>
<g>
</g>
<g>
</g>
<g>
</g>
<g>
</g>
</svg>
