<?xml version="1.0" encoding="iso-8859-1"?>
<!-- Generator: Adobe Illustrator 17.1.0, SVG Export Plug-In . SVG Version: 6.00 Build 0)  -->
<!DOCTYPE svg PUBLIC "-//W3C//DTD SVG 1.1//EN" "http://www.w3.org/Graphics/SVG/1.1/DTD/svg11.dtd">
<svg version="1.1" id="Capa_1" xmlns="http://www.w3.org/2000/svg" xmlns:xlink="http://www.w3.org/1999/xlink" x="0px" y="0px"
	 viewBox="0 0 455.002 455.002" style="enable-background:new 0 0 455.002 455.002;" xml:space="preserve">
<g>
	<path d="M246.508,439.156c-6.301,0.561-12.696,0.845-19.008,0.845c-117.173,0-212.5-95.327-212.5-212.5s95.327-212.5,212.5-212.5
		S440,110.328,440,227.501c0,32.271-7.049,63.262-20.95,92.112c-1.798,3.731-0.23,8.214,3.501,10.012
		c3.729,1.797,8.213,0.232,10.013-3.501C447.451,295.226,455,262.044,455,227.501c0-60.768-23.664-117.897-66.633-160.867
		C345.397,23.665,288.268,0.001,227.5,0.001S109.603,23.665,66.633,66.634C23.664,109.603,0,166.733,0,227.501
		s23.664,117.897,66.633,160.867c42.97,42.969,100.1,66.633,160.867,66.633c6.754,0,13.597-0.304,20.338-0.904
		c4.126-0.367,7.173-4.01,6.806-8.135S250.648,438.792,246.508,439.156z"/>
	<path d="M373.822,318.886c-2.198,3.511-1.135,8.139,2.376,10.337c3.513,2.198,8.14,1.135,10.337-2.377
		C405.157,297.104,415,262.751,415,227.501c0-103.388-84.112-187.5-187.5-187.5S40,124.113,40,227.501s84.112,187.5,187.5,187.5
		c6.769,0,13.66-0.376,20.483-1.118c4.118-0.448,7.094-4.149,6.646-8.267c-0.447-4.118-4.144-7.087-8.267-6.646
		c-6.287,0.684-12.634,1.03-18.862,1.03c-95.117,0-172.5-77.383-172.5-172.5s77.383-172.5,172.5-172.5S400,132.384,400,227.501
		C400,259.932,390.947,291.533,373.822,318.886z"/>
	<path d="M279.808,90.341c-2.93-2.929-7.678-2.929-10.607,0L90.34,269.202c-2.929,2.929-2.929,7.678,0,10.606
		c1.465,1.464,3.384,2.197,5.304,2.197c1.919,0,3.839-0.732,5.304-2.197l178.86-178.861
		C282.736,98.018,282.736,93.269,279.808,90.341z"/>
	<path d="M212.112,250.389c1.919,0,3.839-0.732,5.304-2.197l114.383-114.383c2.929-2.929,2.929-7.678,0-10.606
		c-2.93-2.929-7.678-2.929-10.607,0L206.809,237.585c-2.929,2.929-2.929,7.678,0,10.606
		C208.273,249.656,210.193,250.389,212.112,250.389z"/>
	<path d="M184.182,260.213l-60.98,60.98c-2.929,2.929-2.929,7.678,0,10.606c1.465,1.465,3.384,2.197,5.304,2.197
		c1.919,0,3.839-0.732,5.304-2.197l60.98-60.98c2.929-2.929,2.929-7.678,0-10.606C191.859,257.284,187.111,257.283,184.182,260.213z
		"/>
	<path d="M450.367,345.932c-3.824-1.583-8.213,0.235-9.797,4.063l-32.231,77.892l-32.231-77.892
		c-1.584-3.827-5.97-5.648-9.797-4.063c-3.828,1.584-5.646,5.97-4.063,9.798l39.161,94.639c1.16,2.804,3.896,4.632,6.93,4.632
		s5.77-1.829,6.93-4.632l39.161-94.639C456.014,351.902,454.195,347.516,450.367,345.932z"/>
	<path d="M339.178,345.362c-4.143,0-7.5,3.358-7.5,7.5v63.637c0,12.959-10.543,23.502-23.502,23.502
		c-12.96,0-23.503-10.543-23.503-23.502v-63.637c0-4.142-3.357-7.5-7.5-7.5s-7.5,3.358-7.5,7.5v63.637
		c0,21.23,17.272,38.502,38.503,38.502s38.502-17.272,38.502-38.502v-63.637C346.678,348.72,343.32,345.362,339.178,345.362z"/>
</g>
<g>
</g>
<g>
</g>
<g>
</g>
<g>
</g>
<g>
</g>
<g>
</g>
<g>
</g>
<g>
</g>
<g>
</g>
<g>
</g>
<g>
</g>
<g>
</g>
<g>
</g>
<g>
</g>
<g>
</g>
</svg>
