<?xml version="1.0" encoding="iso-8859-1"?>
<!-- Generator: Adobe Illustrator 17.1.0, SVG Export Plug-In . SVG Version: 6.00 Build 0)  -->
<!DOCTYPE svg PUBLIC "-//W3C//DTD SVG 1.1//EN" "http://www.w3.org/Graphics/SVG/1.1/DTD/svg11.dtd">
<svg version="1.1" id="Capa_1" xmlns="http://www.w3.org/2000/svg" xmlns:xlink="http://www.w3.org/1999/xlink" x="0px" y="0px"
	 viewBox="0 0 487 487" style="enable-background:new 0 0 487 487;" xml:space="preserve">
<g>
	<path d="M10,430.117c5.514,0,10-4.486,10-10s-4.486-10-10-10s-10,4.486-10,10S4.486,430.117,10,430.117z"/>
	<path d="M333.244,305.999H141.471c21.685-21.594,35.79-49.483,40.3-80.328c2.094-14.321-7.854-27.678-22.176-29.772
		c-6.939-1.016-13.855,0.733-19.479,4.922s-9.279,10.316-10.293,17.255c-3.486,23.845-16.051,44.905-35.379,59.302
		c-19.031,14.176-30.999,36.013-32.929,59.504H49.772v-12.5c0-4.143-3.357-7.5-7.5-7.5H7.5c-4.143,0-7.5,3.357-7.5,7.5
		s3.357,7.5,7.5,7.5h27.272v113.236H7.5c-4.143,0-7.5,3.357-7.5,7.5s3.357,7.5,7.5,7.5h34.772c4.143,0,7.5-3.357,7.5-7.5v-12.5
		h15.271C80.645,459.523,104.412,471,129.382,471h80.86h12.75c14.475,0,26.25-11.775,26.25-26.25c0-5.43-1.657-10.48-4.493-14.672
		c7.943-4.519,13.316-13.056,13.316-22.829c0-4.279-1.036-8.318-2.859-11.891c11.72-2.627,20.507-13.108,20.507-25.609
		c0-4.024-0.913-7.838-2.538-11.25h60.069c14.475,0,26.25-11.775,26.25-26.25S347.719,305.999,333.244,305.999z M222.992,456h-12.75
		c-6.203,0-11.25-5.047-11.25-11.25s5.047-11.25,11.25-11.25h12.75c6.203,0,11.25,5.047,11.25,11.25S229.195,456,222.992,456z
		 M198.992,407.249c0-6.203,5.047-11.25,11.25-11.25h21.573c6.203,0,11.25,5.047,11.25,11.25c0,6.204-5.047,11.251-11.25,11.251
		h-21.573C204.039,418.5,198.992,413.453,198.992,407.249z M260.713,369.749c0,6.203-5.047,11.25-11.25,11.25h-39.221
		c-6.203,0-11.25-5.047-11.25-11.25s5.047-11.25,11.25-11.25h39.221C255.666,358.499,260.713,363.546,260.713,369.749z
		 M333.244,343.499h-83.781h-39.221c-14.475,0-26.25,11.775-26.25,26.25c0,7.34,3.031,13.982,7.904,18.75
		c-4.872,4.768-7.904,11.41-7.904,18.75s3.032,13.982,7.904,18.751c-4.872,4.768-7.904,11.41-7.904,18.75
		c0,4.024,0.913,7.838,2.538,11.25h-57.148c-21.487,0-41.891-10.393-54.576-27.8c-1.412-1.938-3.665-3.083-6.062-3.083H49.772
		v-73.236h18.972c2.003,0,3.922-0.801,5.331-2.225c1.408-1.423,2.189-3.351,2.169-5.354c-0.225-21.538,9.93-42.06,27.162-54.896
		c22.541-16.79,37.193-41.352,41.26-69.161c0.435-2.974,2.002-5.6,4.412-7.396c2.409-1.795,5.375-2.54,8.347-2.109
		c6.139,0.898,10.402,6.622,9.505,12.761c-4.939,33.78-22.726,63.606-50.082,83.983c-0.029,0.022-0.053,0.049-0.082,0.071
		c-0.267,0.205-0.524,0.422-0.76,0.661c-0.022,0.021-0.04,0.045-0.061,0.067c-0.213,0.22-0.41,0.455-0.595,0.7
		c-0.044,0.058-0.089,0.116-0.131,0.175c-0.19,0.267-0.365,0.545-0.52,0.836c-0.017,0.031-0.03,0.063-0.046,0.095
		c-0.139,0.271-0.259,0.553-0.365,0.842c-0.02,0.055-0.041,0.108-0.06,0.164c-0.106,0.314-0.195,0.636-0.259,0.967
		c-0.008,0.041-0.011,0.082-0.019,0.122c-0.05,0.281-0.082,0.568-0.099,0.86c-0.005,0.086-0.011,0.172-0.013,0.259
		c-0.002,0.065-0.01,0.128-0.01,0.194c0,0.27,0.016,0.535,0.043,0.797c0.002,0.02,0.007,0.039,0.009,0.058
		c0.038,0.332,0.102,0.654,0.181,0.972c0.008,0.033,0.01,0.067,0.019,0.101l12.201,45.89c0.893,3.358,3.926,5.575,7.243,5.575
		c0.638,0,1.286-0.082,1.932-0.254c4.004-1.064,6.386-5.172,5.321-9.175l-9.695-36.463h202.161c6.203,0,11.25,5.047,11.25,11.25
		S339.447,343.499,333.244,343.499z"/>
	<path d="M477,56.883c-5.514,0-10,4.486-10,10s4.486,10,10,10s10-4.486,10-10S482.514,56.883,477,56.883z"/>
	<path d="M479.5,155.119h-27.272V41.883H479.5c4.143,0,7.5-3.357,7.5-7.5s-3.357-7.5-7.5-7.5h-34.772c-4.143,0-7.5,3.357-7.5,7.5
		v12.5h-15.271C406.355,27.477,382.588,16,357.618,16h-93.61c-14.475,0-26.25,11.775-26.25,26.25c0,5.428,1.655,10.476,4.489,14.666
		c-7.944,4.519-13.313,13.062-13.313,22.835c0,4.275,1.027,8.315,2.848,11.886c-11.715,2.63-20.495,13.116-20.495,25.614
		c0,4.023,0.91,7.839,2.535,11.25h-60.066c-14.475,0-26.25,11.775-26.25,26.25s11.775,26.25,26.25,26.25h191.76
		c-21.684,21.594-35.777,49.485-40.287,80.328c-2.094,14.321,7.854,27.678,22.176,29.772c1.288,0.188,2.574,0.281,3.853,0.281
		c5.608,0,11.047-1.792,15.626-5.203c5.623-4.188,9.279-10.316,10.293-17.255c3.486-23.845,16.051-44.905,35.379-59.302
		c19.031-14.176,30.999-36.013,32.93-59.504h11.743v12.5c0,4.143,3.357,7.5,7.5,7.5H479.5c4.143,0,7.5-3.357,7.5-7.5
		S483.643,155.119,479.5,155.119z M418.256,135.119c-2.003,0-3.922,0.801-5.331,2.225c-1.408,1.423-2.189,3.351-2.169,5.354
		c0.225,21.538-9.93,42.06-27.162,54.896c-22.541,16.79-37.193,41.352-41.26,69.161c-0.435,2.974-2.002,5.6-4.412,7.395
		c-2.409,1.797-5.373,2.543-8.347,2.11c-6.139-0.898-10.402-6.622-9.505-12.761c4.939-33.78,22.726-63.606,50.082-83.983
		c2.593-1.931,3.656-5.306,2.639-8.375c-1.018-3.068-3.887-5.14-7.119-5.14H153.756c-6.203,0-11.25-5.047-11.25-11.25
		s5.047-11.25,11.25-11.25h83.781h17.647c4.143,0,7.5-3.357,7.5-7.5s-3.357-7.5-7.5-7.5h-17.647c-6.203,0-11.25-5.047-11.25-11.25
		s5.047-11.25,11.25-11.25h17.647c4.143,0,7.5-3.357,7.5-7.5s-3.357-7.5-7.5-7.5c-6.203,0-11.25-5.047-11.25-11.25
		s5.047-11.25,11.25-11.25h8.823c4.143,0,7.5-3.357,7.5-7.5s-3.357-7.5-7.5-7.5c-6.203,0-11.25-5.047-11.25-11.251
		c0-6.203,5.047-11.25,11.25-11.25h93.61c21.487,0,41.891,10.393,54.576,27.8c1.412,1.938,3.665,3.083,6.062,3.083h18.972v73.236
		H418.256z"/>
</g>
<g>
</g>
<g>
</g>
<g>
</g>
<g>
</g>
<g>
</g>
<g>
</g>
<g>
</g>
<g>
</g>
<g>
</g>
<g>
</g>
<g>
</g>
<g>
</g>
<g>
</g>
<g>
</g>
<g>
</g>
</svg>
