<?xml version="1.0" encoding="iso-8859-1"?>
<!-- Generator: Adobe Illustrator 19.0.0, SVG Export Plug-In . SVG Version: 6.00 Build 0)  -->
<svg version="1.1" id="Capa_1" xmlns="http://www.w3.org/2000/svg" xmlns:xlink="http://www.w3.org/1999/xlink" x="0px" y="0px"
	 viewBox="0 0 512 512" style="enable-background:new 0 0 512 512;" xml:space="preserve">
<g>
	<g>
		<path d="M494.5,18.685H313.454H198.546H17.5c-9.649,0-17.5,7.851-17.5,17.5v439.631c0,9.649,7.851,17.5,17.5,17.5h477
			c9.649,0,17.5-7.851,17.5-17.5V36.185C512,26.534,504.149,18.685,494.5,18.685z M206.046,33.685h99.908v53.701h-99.908V33.685z
			 M204.408,102.387h103.184c7.368,0,13.362-5.994,13.362-13.361V83.51h113.722c6.893,0,12.5,5.607,12.5,12.5v3.49h-10.607
			c-7.368,0-13.362,5.994-13.362,13.362v16.049h-76.336v-4.899c0-5.79-4.71-10.5-10.5-10.5H253.5c-5.79,0-10.5,4.71-10.5,10.5v4.899
			h-85c-4.143,0-7.5,3.358-7.5,7.5c0,4.142,3.357,7.5,7.5,7.5h85v8.162c0,5.79,4.71,10.5,10.5,10.5h2.934l11.753,20.357
			c2.158,3.738,6.68,6.348,10.995,6.348h8.254v5.582c0,4.142,3.358,7.5,7.5,7.5c4.143,0,7.5-3.358,7.5-7.5v-5.582h8.254
			c4.315,0,8.837-2.61,10.995-6.348l11.753-20.357h2.934c5.79,0,10.5-4.71,10.5-10.5v-8.162h76.336v17.025
			c0,7.368,5.994,13.362,13.362,13.362h10.607v54.297C430.143,233.123,418,248.466,418,266.729v92
			c0,18.264,12.143,33.605,29.176,38.134v19.128c0,6.893-5.607,12.5-12.5,12.5h-33.535v-8.179c0-10.601-8.625-19.226-19.226-19.226
			H361c-4.143,0-7.5,3.358-7.5,7.5c0,4.142,3.357,7.5,7.5,7.5h20.915c2.29,0,4.226,1.935,4.226,4.226v8.179H125.859v-8.179
			c0-2.29,1.936-4.226,4.226-4.226H319c4.143,0,7.5-3.358,7.5-7.5c0-4.142-3.357-7.5-7.5-7.5h-22.427l-5.79-10.027
			c11.537-10.018,18.252-24.519,18.252-40.002c0-17.171-8.388-33.36-22.435-43.303c-0.811-0.574-1.134-1.624-0.773-2.586
			c0.113-0.309,0.214-0.621,0.298-0.928l15.621-57.214c0.897-3.29,0.195-6.873-1.874-9.583c-2.07-2.712-5.344-4.331-8.757-4.331
			h-70.23c-3.415,0-6.689,1.621-8.753,4.328c-2.074,2.713-2.775,6.299-1.876,9.591l15.618,57.196
			c0.084,0.311,0.182,0.615,0.314,0.977c0.348,0.927,0.023,1.977-0.785,2.549c-14.05,9.943-22.438,26.132-22.438,43.305
			c0,15.482,6.714,29.984,18.25,40.002l-5.789,10.027h-85.341c-10.601,0-19.226,8.624-19.226,19.226v8.179H77.324
			c-6.893,0-12.5-5.607-12.5-12.5v-19.127C81.857,392.334,94,376.992,94,358.729v-92c0-18.264-12.143-33.605-29.176-38.134v-54.296
			H75.43c7.368,0,13.362-5.994,13.362-13.362v-17.025H116c4.143,0,7.5-3.358,7.5-7.5c0-4.142-3.357-7.5-7.5-7.5H88.793v-16.049
			c0-7.368-5.994-13.362-13.362-13.362H64.824V96.01c0-6.893,5.607-12.5,12.5-12.5h113.722v5.516
			C191.046,96.393,197.04,102.387,204.408,102.387z M447.176,114.5v44.799h-8.969V114.5H447.176z M258,147.573v-19.061h73.871
			v19.061H258z M316.117,162.573l-6.758,11.705h-28.847l-6.758-11.705H316.117z M240.303,300.127l-1.578-5.779h6.722
			c4.143,0,7.5-3.358,7.5-7.5c0-4.142-3.357-7.5-7.5-7.5H234.63l-2.628-9.624h14.617c4.143,0,7.5-3.358,7.5-7.5
			c0-4.142-3.357-7.5-7.5-7.5h-18.713l-1.806-6.613h59.8l-14.202,52.017c-2.621,7.253-0.076,15.397,6.234,19.867
			c10.083,7.137,16.103,18.748,16.103,31.061c0,12.809-6.42,24.688-17.174,31.775c-3.315,2.185-4.353,6.574-2.368,10.013
			l4.759,8.242h-46.506l2.73-4.727h13.489c4.143,0,7.5-3.358,7.5-7.5c0-4.142-3.357-7.5-7.5-7.5h-15.903
			c-9.496-7.195-15.097-18.342-15.097-30.302c0-12.313,6.02-23.925,16.105-31.063C240.396,315.513,242.938,307.336,240.303,300.127z
			 M64.824,380.922V244.536C73.199,248.477,79,257.05,79,266.729v92C79,368.406,73.199,376.979,64.824,380.922z M64.824,159.299
			V114.5h8.969v44.799H64.824z M497,475.815c0,1.355-1.145,2.5-2.5,2.5h-477c-1.355,0-2.5-1.145-2.5-2.5V36.185
			c0-1.355,1.145-2.5,2.5-2.5h173.546v34.824H77.324c-15.163,0-27.5,12.336-27.5,27.5V415.99c0,15.164,12.337,27.5,27.5,27.5
			h357.352c15.163,0,27.5-12.336,27.5-27.5V317c0-4.142-3.357-7.5-7.5-7.5s-7.5,3.358-7.5,7.5v63.889
			c-8.367-3.944-14.176-12.487-14.176-22.16v-92c0-9.672,5.809-18.215,14.176-22.16V272c0,4.142,3.357,7.5,7.5,7.5
			s7.5-3.358,7.5-7.5V96.008c0-15.164-12.337-27.5-27.5-27.5H320.954V33.685H494.5c1.355,0,2.5,1.145,2.5,2.5V475.815z"/>
	</g>
</g>
<g>
	<g>
		<path d="M345.73,46.68c-1.4-1.4-3.331-2.2-5.31-2.2c-1.97,0-3.91,0.8-5.3,2.2c-1.4,1.4-2.2,3.33-2.2,5.3c0,1.98,0.8,3.91,2.2,5.3
			c1.39,1.4,3.33,2.2,5.3,2.2c1.98,0,3.91-0.8,5.31-2.2c1.391-1.39,2.19-3.32,2.19-5.3C347.92,50.01,347.12,48.08,345.73,46.68z"/>
	</g>
</g>
<g>
	<g>
		<path d="M175.71,46.68c-1.4-1.4-3.33-2.2-5.3-2.2c-1.98,0-3.91,0.8-5.311,2.2c-1.39,1.39-2.189,3.33-2.189,5.3
			c0,1.98,0.8,3.91,2.189,5.31c1.401,1.39,3.331,2.19,5.311,2.19c1.97,0,3.899-0.8,5.3-2.19c1.399-1.4,2.2-3.34,2.2-5.31
			C177.91,50.01,177.109,48.08,175.71,46.68z"/>
	</g>
</g>
<g>
	<g>
		<path d="M265.967,453.691h-19.934c-4.143,0-7.5,3.358-7.5,7.5c0,4.142,3.357,7.5,7.5,7.5h19.934c4.143,0,7.5-3.358,7.5-7.5
			C273.467,457.049,270.109,453.691,265.967,453.691z"/>
	</g>
</g>
<g>
	<g>
		<path d="M246.619,39.789h-26.968c-4.143,0-7.5,3.358-7.5,7.5v26.969c0,4.142,3.358,7.5,7.5,7.5h26.968c4.143,0,7.5-3.358,7.5-7.5
			V47.289C254.119,43.148,250.762,39.789,246.619,39.789z M239.119,66.758h-11.968V54.789h11.968V66.758z"/>
	</g>
</g>
<g>
	<g>
		<path d="M288.831,66.758h-19.933c-4.143,0-7.5,3.358-7.5,7.5c0,4.142,3.358,7.5,7.5,7.5h19.933c4.143,0,7.5-3.358,7.5-7.5
			C296.331,70.117,292.974,66.758,288.831,66.758z"/>
	</g>
</g>
<g>
	<g>
		<path d="M288.831,39.789h-19.933c-4.143,0-7.5,3.358-7.5,7.5c0,4.142,3.358,7.5,7.5,7.5h19.933c4.143,0,7.5-3.358,7.5-7.5
			C296.331,43.148,292.974,39.789,288.831,39.789z"/>
	</g>
</g>
<g>
	<g>
		<path d="M231,213.5h-11.5c-4.143,0-7.5,3.358-7.5,7.5c0,4.142,3.357,7.5,7.5,7.5H231c4.143,0,7.5-3.358,7.5-7.5
			C238.5,216.859,235.143,213.5,231,213.5z"/>
	</g>
</g>
<g>
	<g>
		<path d="M262.595,213.5h-13.191c-4.143,0-7.5,3.358-7.5,7.5c0,4.142,3.358,7.5,7.5,7.5h13.191c4.143,0,7.5-3.358,7.5-7.5
			C270.095,216.859,266.738,213.5,262.595,213.5z"/>
	</g>
</g>
<g>
	<g>
		<path d="M292.5,213.5H281c-4.143,0-7.5,3.358-7.5,7.5c0,4.142,3.357,7.5,7.5,7.5h11.5c4.143,0,7.5-3.358,7.5-7.5
			C300,216.859,296.643,213.5,292.5,213.5z"/>
	</g>
</g>
<g>
</g>
<g>
</g>
<g>
</g>
<g>
</g>
<g>
</g>
<g>
</g>
<g>
</g>
<g>
</g>
<g>
</g>
<g>
</g>
<g>
</g>
<g>
</g>
<g>
</g>
<g>
</g>
<g>
</g>
</svg>
