<?xml version="1.0" encoding="iso-8859-1"?>
<!-- Generator: Adobe Illustrator 19.0.0, SVG Export Plug-In . SVG Version: 6.00 Build 0)  -->
<svg version="1.1" id="Capa_1" xmlns="http://www.w3.org/2000/svg" xmlns:xlink="http://www.w3.org/1999/xlink" x="0px" y="0px"
	 viewBox="0 0 463 463" style="enable-background:new 0 0 463 463;" xml:space="preserve">
<g>
	<path d="M455,301.945V155.5c0-12.958-10.542-23.5-23.5-23.5h-58.835l-12.19-30.255c-2.367-5.92-8.017-9.745-14.392-9.745H295.5
		c-4.143,0-7.5,3.357-7.5,7.5V132H175V99.5c0-4.143-3.357-7.5-7.5-7.5h-50.584c-6.375,0-12.024,3.825-14.385,9.727L90.335,132H31.5
		C18.542,132,8,142.542,8,155.5v146.445c-4.765,2.647-8,7.728-8,13.555v16c0,8.547,6.953,15.5,15.5,15.5H112v8.5
		c0,8.547,6.953,15.5,15.5,15.5h208c8.547,0,15.5-6.953,15.5-15.5V347h96.5c8.547,0,15.5-6.953,15.5-15.5v-16
		C463,309.673,459.765,304.592,455,301.945z M351,300v-33h32.5c4.143,0,7.5-3.357,7.5-7.5s-3.357-7.5-7.5-7.5h-304
		c-4.143,0-7.5,3.357-7.5,7.5s3.357,7.5,7.5,7.5H112v33H23V187h417v113H351z M303,107h43.084c0.205,0,0.388,0.123,0.471,0.332
		L356.493,132H303V107z M116.452,107.313c0.076-0.19,0.259-0.313,0.464-0.313H160v25h-53.493L116.452,107.313z M31.5,147h400
		c4.687,0,8.5,3.813,8.5,8.5V172H23v-16.5C23,150.813,26.813,147,31.5,147z M15.5,332c-0.275,0-0.5-0.225-0.5-0.5v-16
		c0-0.275,0.225-0.5,0.5-0.5H112v17H15.5z M335.5,356h-208c-0.275,0-0.5-0.225-0.5-0.5V267h209v88.5
		C336,355.775,335.775,356,335.5,356z M448,331.5c0,0.275-0.225,0.5-0.5,0.5H351v-17h96.5c0.275,0,0.5,0.225,0.5,0.5V331.5z"/>
	<path d="M127.5,212h-48c-4.143,0-7.5,3.357-7.5,7.5s3.357,7.5,7.5,7.5h48c4.143,0,7.5-3.357,7.5-7.5S131.643,212,127.5,212z"/>
	<path d="M367.5,196c-12.958,0-23.5,10.542-23.5,23.5s10.542,23.5,23.5,23.5s23.5-10.542,23.5-23.5S380.458,196,367.5,196z
		 M367.5,228c-4.687,0-8.5-3.813-8.5-8.5s3.813-8.5,8.5-8.5s8.5,3.813,8.5,8.5S372.187,228,367.5,228z"/>
	<path d="M319.5,204c-8.547,0-15.5,6.953-15.5,15.5s6.953,15.5,15.5,15.5s15.5-6.953,15.5-15.5S328.047,204,319.5,204z"/>
</g>
<g>
</g>
<g>
</g>
<g>
</g>
<g>
</g>
<g>
</g>
<g>
</g>
<g>
</g>
<g>
</g>
<g>
</g>
<g>
</g>
<g>
</g>
<g>
</g>
<g>
</g>
<g>
</g>
<g>
</g>
</svg>
