<?xml version="1.0" encoding="iso-8859-1"?>
<!-- Generator: Adobe Illustrator 19.0.0, SVG Export Plug-In . SVG Version: 6.00 Build 0)  -->
<svg version="1.1" id="Capa_1" xmlns="http://www.w3.org/2000/svg" xmlns:xlink="http://www.w3.org/1999/xlink" x="0px" y="0px"
	 viewBox="0 0 512.001 512.001" style="enable-background:new 0 0 512.001 512.001;" xml:space="preserve">
<g>
	<g>
		<g>
			<path d="M494.794,458.172h-46.859v-25.995c8.233-1.28,14.561-8.396,14.561-16.982v-21.621h7.445c15.163,0,27.5-12.336,27.5-27.5
				V173.105c0-15.164-12.337-27.5-27.5-27.5h-7.445v-21.621c0-8.586-6.328-15.702-14.561-16.982V22.061
				C447.935,9.896,438.037,0,425.873,0s-22.061,9.896-22.061,22.061v84.942c-8.233,1.28-14.561,8.396-14.561,16.982v21.621h-7.445
				c-15.163,0-27.5,12.336-27.5,27.5v192.969c0,15.164,12.337,27.5,27.5,27.5h7.445v21.621c0,8.586,6.328,15.702,14.561,16.982
				v25.995H278.062v-25.995c8.233-1.28,14.561-8.396,14.561-16.982v-21.621h7.445c15.163,0,27.5-12.336,27.5-27.5V211.934
				c0-15.164-12.337-27.5-27.5-27.5h-7.445v-21.621c0-8.586-6.328-15.702-14.561-16.982V99.717c0-12.164-9.896-22.061-22.061-22.061
				c-12.165,0-22.061,9.896-22.061,22.061v46.114c-8.233,1.28-14.561,8.396-14.561,16.982v21.621h-7.445
				c-15.163,0-27.5,12.336-27.5,27.5v154.141c0,15.164,12.337,27.5,27.5,27.5h7.445v21.621c0,8.586,6.328,15.702,14.561,16.982
				v25.995h-51.713c-4.143,0-7.5,3.358-7.5,7.5c0,4.142,3.357,7.5,7.5,7.5h312.566c1.217,0,2.207,0.99,2.207,2.207v19.414
				c0,1.217-0.99,2.207-2.207,2.207H376.367c-4.143,0-7.5,3.358-7.5,7.5c0,4.142,3.357,7.5,7.5,7.5h118.426
				c9.488,0,17.207-7.719,17.207-17.207V475.38C512,465.891,504.281,458.172,494.794,458.172z M248.94,99.717
				c-0.001-3.893,3.166-7.061,7.06-7.061c3.894,0,7.061,3.167,7.061,7.061v45.889H248.94V99.717z M234.38,162.813
				c0-1.217,0.99-2.207,2.207-2.207h38.828c1.217,0,2.207,0.99,2.207,2.207v21.621H234.38V162.813z M211.935,378.574
				c-6.893,0-12.5-5.607-12.5-12.5v-50.156h95.748c4.143,0,7.5-3.358,7.5-7.5c0-4.142-3.357-7.5-7.5-7.5h-95.748V277.09h26.916
				c4.143,0,7.5-3.358,7.5-7.5c0-4.142-3.357-7.5-7.5-7.5h-26.916v-23.828h61.332c4.143,0,7.5-3.358,7.5-7.5
				c0-4.142-3.357-7.5-7.5-7.5h-61.332v-11.328c0-6.893,5.607-12.5,12.5-12.5h88.133c6.893,0,12.5,5.607,12.5,12.5v11.328h-17.385
				c-4.143,0-7.5,3.358-7.5,7.5c0,4.142,3.357,7.5,7.5,7.5h17.385v23.828h-51.801c-4.143,0-7.5,3.358-7.5,7.5
				c0,4.142,3.357,7.5,7.5,7.5h51.801v62.656h-86.217c-4.143,0-7.5,3.358-7.5,7.5c0,4.142,3.357,7.5,7.5,7.5h86.217v11.328
				c0,6.893-5.607,12.5-12.5,12.5H211.935z M263.06,458.172H248.94v-25.77h14.121V458.172z M277.622,415.195
				c0,1.217-0.99,2.207-2.207,2.207h-38.828c-1.217,0-2.207-0.99-2.207-2.207v-21.621h43.242V415.195z M418.813,22.061
				c0-3.894,3.166-7.061,7.06-7.061c3.894,0,7.061,3.167,7.061,7.061v84.717h-14.121V22.061z M404.253,123.984
				c0-1.217,0.99-2.207,2.207-2.207h38.828c1.217,0,2.207,0.99,2.207,2.207v21.621h-43.242V123.984z M381.807,378.574
				c-6.893,0-12.5-5.607-12.5-12.5v-50.156h95.748c4.143,0,7.5-3.358,7.5-7.5c0-4.142-3.357-7.5-7.5-7.5h-95.748V277.09h26.916
				c4.143,0,7.5-3.358,7.5-7.5c0-4.142-3.357-7.5-7.5-7.5h-26.916v-23.828h61.332c4.143,0,7.5-3.358,7.5-7.5
				c0-4.142-3.357-7.5-7.5-7.5h-61.332v-23.828h95.748c4.143,0,7.5-3.358,7.5-7.5c0-4.142-3.357-7.5-7.5-7.5h-95.748v-11.328
				c0-6.893,5.607-12.5,12.5-12.5h88.133c6.893,0,12.5,5.607,12.5,12.5v50.156h-17.385c-4.143,0-7.5,3.358-7.5,7.5
				c0,4.142,3.357,7.5,7.5,7.5h17.385v23.828H430.64c-4.143,0-7.5,3.358-7.5,7.5c0,4.142,3.357,7.5,7.5,7.5h51.801v62.656h-86.217
				c-4.143,0-7.5,3.358-7.5,7.5c0,4.142,3.357,7.5,7.5,7.5h86.217v11.328c0,6.893-5.607,12.5-12.5,12.5H381.807z M432.935,458.172
				h-14.121v-25.77h14.121V458.172z M447.495,415.195c0,1.217-0.99,2.207-2.207,2.207h-38.828c-1.217,0-2.207-0.99-2.207-2.207
				v-21.621h43.242V415.195z"/>
			<path d="M347.247,497H17.208C15.99,497,15,496.01,15,494.793v-19.414c0-1.217,0.99-2.207,2.207-2.207h54.35
				c0.003,0,0.006,0,0.01,0c0.004,0,0.006,0,0.01,0h81.529c4.143,0,7.5-3.358,7.5-7.5c0-4.142-3.357-7.5-7.5-7.5h-44.918v-25.995
				c8.233-1.28,14.561-8.396,14.561-16.982v-21.621h7.445c15.163,0,27.5-12.336,27.5-27.5V250.762c0-15.164-12.337-27.5-27.5-27.5
				h-7.445v-21.621c0-8.586-6.328-15.702-14.561-16.982v-46.114c0-12.164-9.896-22.061-22.061-22.061
				c-12.165,0-22.061,9.896-22.061,22.061v46.114c-8.233,1.28-14.561,8.396-14.561,16.982v21.621H42.06
				c-15.163,0-27.5,12.336-27.5,27.5v115.313c0,15.164,12.337,27.5,27.5,27.5h7.445v21.621c0,8.586,6.328,15.702,14.561,16.982
				v25.995H17.208C7.719,458.172,0,465.891,0,475.379v19.414C0,504.281,7.719,512,17.208,512h330.039c4.143,0,7.5-3.358,7.5-7.5
				C354.747,500.358,351.39,497,347.247,497z M93.188,458.172H79.066v-25.77h14.121V458.172z M107.748,415.195
				c0,1.217-0.99,2.207-2.207,2.207H66.714c-1.217,0-2.207-0.99-2.207-2.207v-21.621h43.242V415.195z M79.066,138.545
				c0-3.893,3.167-7.061,7.061-7.061s7.061,3.167,7.061,7.061v45.889H79.066V138.545z M64.506,201.641
				c0-1.217,0.99-2.207,2.207-2.207h38.828c1.217,0,2.207,0.99,2.207,2.207v21.621H64.506V201.641z M42.061,378.574
				c-6.893,0-12.5-5.607-12.5-12.5v-50.156h95.748c4.143,0,7.5-3.358,7.5-7.5c0-4.142-3.357-7.5-7.5-7.5H29.561V277.09h26.916
				c4.143,0,7.5-3.358,7.5-7.5c0-4.142-3.357-7.5-7.5-7.5H29.561v-11.328c0-6.893,5.607-12.5,12.5-12.5h88.133
				c6.893,0,12.5,5.607,12.5,12.5v11.328H90.893c-4.143,0-7.5,3.358-7.5,7.5c0,4.142,3.357,7.5,7.5,7.5h51.801v62.656H56.477
				c-4.143,0-7.5,3.358-7.5,7.5c0,4.142,3.357,7.5,7.5,7.5h86.217v11.328c0,6.893-5.607,12.5-12.5,12.5H42.061z"/>
		</g>
	</g>
</g>
<g>
</g>
<g>
</g>
<g>
</g>
<g>
</g>
<g>
</g>
<g>
</g>
<g>
</g>
<g>
</g>
<g>
</g>
<g>
</g>
<g>
</g>
<g>
</g>
<g>
</g>
<g>
</g>
<g>
</g>
</svg>
