<?xml version="1.0" encoding="iso-8859-1"?>
<!-- Generator: Adobe Illustrator 19.0.0, SVG Export Plug-In . SVG Version: 6.00 Build 0)  -->
<svg version="1.1" id="Capa_1" xmlns="http://www.w3.org/2000/svg" xmlns:xlink="http://www.w3.org/1999/xlink" x="0px" y="0px"
	 viewBox="0 0 512.001 512.001" style="enable-background:new 0 0 512.001 512.001;" xml:space="preserve">
<g>
	<g>
		<path d="M392.727,428.258L352.204,79.697c-1.027-8.83-8.505-15.489-17.394-15.489h-28.9v-51.7C305.91,5.611,300.299,0,293.402,0
			H280.35c-4.145,0-7.505,3.36-7.505,7.505s3.36,7.505,7.505,7.505h10.551v49.199h-69.798V15.01h5.212
			c4.145,0,7.505-3.36,7.505-7.505S230.459,0,226.314,0H218.6c-6.897,0-12.508,5.611-12.508,12.508v51.701h-28.9
			c-8.89,0-16.368,6.659-17.394,15.489l-4.841,41.637c-0.001,0.006-0.001,0.012-0.001,0.012l-22.408,192.742
			c-0.001,0.009-0.002,0.019-0.003,0.028l-4.978,42.818c-0.001,0.006-0.002,0.012-0.002,0.018l-8.29,71.306
			c-0.577,4.958,0.997,9.94,4.316,13.668c3.32,3.727,8.086,5.865,13.078,5.865h36.525v51.701c0,6.897,5.611,12.508,12.508,12.508
			h70.299c4.145,0,7.505-3.36,7.505-7.505s-3.36-7.505-7.505-7.505h-67.797v-49.199h106.8c0.009,0,0.019,0.002,0.028,0.002
			c0.012,0,0.024-0.002,0.036-0.002h28.73v49.199h-14.097c-4.145,0-7.505,3.36-7.505,7.505s3.36,7.504,7.505,7.504h16.598
			c6.897,0,12.508-5.611,12.508-12.508v-51.701h36.525c4.992,0,9.758-2.138,13.078-5.865
			C391.73,438.198,393.303,433.216,392.727,428.258z M366.685,334.235L216.078,202.023l31.405-22.087l112.579,97.331
			L366.685,334.235z M331.412,323.245l-66.088,37.04l-14.78-31.111l64.499-20.299L331.412,323.245z M357.497,255.208l-97.359-84.172
			l30.261-21.281l61.316,55.717L357.497,255.208z M349.079,182.794l-46.098-41.888l38.112-26.803L349.079,182.794z M174.709,81.431
			c0.145-1.262,1.214-2.212,2.484-2.212h36.405h0.849l-42.726,27.912L174.709,81.431z M169.464,126.534l72.428-47.316h47.243
			l-124.232,86.544L169.464,126.534z M162.589,185.667L315.395,79.219h19.415c1.27,0,2.338,0.95,2.485,2.212l1.826,15.709
			L158.079,224.462L162.589,185.667z M155.755,244.446l47.69-33.539l29.649,26.028l-79.467,25.813L155.755,244.446z
			 M151.721,279.149l94.495-30.695l21.45,18.83l-118.863,36.968L151.721,279.149z M146.907,320.559l133.98-41.67l20.962,18.402
			L143.83,347.023L146.907,320.559z M136.668,432.781c-0.975,0-1.589-0.524-1.867-0.837c-0.279-0.314-0.729-0.983-0.617-1.952
			l7.747-66.636l4.682-1.474l32.811,70.899H136.668z M195.965,432.78L195.965,432.78l-34.914-75.442l27.706-8.72l40.934,84.162
			H195.965z M246.382,432.781L246.382,432.781l-43.15-88.718l32.856-10.34l41.528,87.405c0.007,0.014,0.013,0.028,0.02,0.042
			l5.516,11.611H246.382z M271.782,373.873l71.595-40.126l17.847,15.667l-74.05,56.856L271.782,373.873z M377.201,431.944
			c-0.279,0.313-0.892,0.837-1.868,0.837h-44.03H299.77l-6.009-12.647l76.116-58.442l7.94,68.299
			C377.93,430.961,377.48,431.63,377.201,431.944z"/>
	</g>
</g>
<g>
</g>
<g>
</g>
<g>
</g>
<g>
</g>
<g>
</g>
<g>
</g>
<g>
</g>
<g>
</g>
<g>
</g>
<g>
</g>
<g>
</g>
<g>
</g>
<g>
</g>
<g>
</g>
<g>
</g>
</svg>
