<?xml version="1.0" encoding="iso-8859-1"?>
<!-- Generator: Adobe Illustrator 19.0.0, SVG Export Plug-In . SVG Version: 6.00 Build 0)  -->
<svg version="1.1" id="Capa_1" xmlns="http://www.w3.org/2000/svg" xmlns:xlink="http://www.w3.org/1999/xlink" x="0px" y="0px"
	 viewBox="0 0 512 512" style="enable-background:new 0 0 512 512;" xml:space="preserve">
<g>
	<g>
		<path d="M503.42,267.659l-54.752-94.848c-2.069-3.586-6.655-4.815-10.242-2.746l-103.938,59.979
			c-0.219,0.126-0.43,0.264-0.633,0.41c-0.115,0.082-0.22,0.174-0.329,0.262c-0.082,0.066-0.167,0.127-0.246,0.197
			c-0.143,0.126-0.276,0.26-0.408,0.396c-0.038,0.038-0.079,0.074-0.116,0.114c-0.136,0.145-0.261,0.298-0.384,0.452
			c-0.029,0.036-0.061,0.07-0.089,0.106c-0.116,0.151-0.22,0.309-0.324,0.467c-0.03,0.047-0.064,0.091-0.094,0.138
			c-0.092,0.147-0.172,0.301-0.253,0.454c-0.034,0.063-0.072,0.125-0.104,0.189c-0.07,0.144-0.13,0.291-0.19,0.438
			c-0.033,0.079-0.071,0.155-0.101,0.235c-0.071,0.189-0.13,0.383-0.186,0.578c-0.011,0.039-0.027,0.076-0.037,0.116
			c-0.068,0.268-0.117,0.49-0.155,0.716c-0.012,0.073-0.016,0.146-0.026,0.221c-0.023,0.169-0.047,0.338-0.058,0.509
			c-0.004,0.063-0.002,0.127-0.004,0.19c-0.008,0.182-0.014,0.363-0.009,0.546c0.001,0.046,0.008,0.091,0.01,0.137
			c0.01,0.198,0.023,0.396,0.049,0.595c0.005,0.035,0.013,0.07,0.018,0.105c0.03,0.206,0.065,0.412,0.112,0.616
			c0.008,0.036,0.021,0.071,0.03,0.107c0.05,0.2,0.103,0.399,0.17,0.597c0.025,0.074,0.058,0.146,0.086,0.22
			c0.058,0.155,0.114,0.312,0.184,0.466c0.103,0.227,0.216,0.45,0.342,0.668l60.859,105.417h-39.123v-7.72
			c0-3.032-1.827-5.768-4.629-6.928c-2.803-1.163-6.027-0.52-8.172,1.625l-74.984,74.984c-2.928,2.929-2.928,7.676,0,10.605
			l74.984,74.984c1.436,1.435,3.353,2.196,5.305,2.196c0.966,0,1.94-0.187,2.867-0.571c2.802-1.16,4.629-3.895,4.629-6.928v-7.503
			l27.027,0.005c22.891,0,49.792-15.526,61.241-35.348l61.66-106.744C514.859,318.54,514.864,287.484,503.42,267.659z
			 M428.763,437.604c-8.722,15.098-30.82,27.852-48.255,27.852l-34.526-0.006c-1.99,0-3.896,0.79-5.303,2.196
			c-0.767,0.767-1.351,1.682-1.723,2.677l-57.356-57.356l57.298-57.298c1.021,2.929,3.806,5.03,7.083,5.03h55.28l35.953,62.274
			L428.763,437.604z M490.423,330.861l-44.549,77.121l-97.394-168.698l90.948-52.483l51.003,88.356
			C499.148,290.254,499.144,315.764,490.423,330.861z"/>
	</g>
</g>
<g>
	<g>
		<path d="M241.004,345.435l-122.04-0.022l19.973-33.742l6.553,3.78c2.626,1.515,5.907,1.3,8.313-0.547
			c2.406-1.848,3.462-4.961,2.676-7.891L129.006,204.59c-1.073-3.999-5.183-6.372-9.186-5.3L17.397,226.763
			c-2.929,0.786-5.097,3.259-5.492,6.267c-0.395,3.006,1.061,5.956,3.687,7.471l6.499,3.75L8.58,267.658
			c-11.445,19.826-11.44,50.883,0.011,70.705l61.661,106.744c11.449,19.821,38.349,35.348,61.241,35.348h39.758
			c4.142,0,7.498-3.356,7.498-7.498s-3.356-7.498-7.498-7.498h-39.758c-17.436,0-39.535-12.754-48.256-27.851l-44.601-77.212
			l194.868,0.036v105.027h-32.26c-4.142,0-7.498,3.356-7.498,7.498s3.356,7.498,7.498,7.498h39.759c4.142,0,7.498-3.356,7.498-7.498
			V352.933C248.502,348.792,245.145,345.436,241.004,345.435z M29.974,345.396l-8.397-14.536
			c-8.721-15.097-8.725-40.606-0.009-55.706l17.261-29.901c0.995-1.724,1.265-3.77,0.749-5.691c-0.281-1.047-0.782-2.011-1.459-2.83
			l78.344-21.015l21.017,78.35c-2.96-0.486-6.052,0.846-7.67,3.581l-28.27,47.76L29.974,345.396z"/>
	</g>
</g>
<g>
	<g>
		<path d="M407.199,72.102c-2.406-1.847-5.687-2.062-8.314-0.545l-6.499,3.753l-13.51-23.405
			c-11.443-19.826-38.34-35.355-61.231-35.354L194.371,16.56c-22.891,0.001-49.79,15.53-61.238,35.353l-54.771,94.83
			c-0.995,1.723-1.265,3.769-0.751,5.69c0.515,1.921,1.771,3.559,3.493,4.553l103.934,60.028c1.182,0.683,2.471,1.007,3.743,1.007
			c2.59,0,5.11-1.344,6.5-3.748l60.762-105.162l19.452,33.705l-6.48,3.742c-2.626,1.518-4.08,4.467-3.684,7.473
			c0.396,3.007,2.565,5.479,5.494,6.265l102.434,27.434c4,1.07,8.11-1.304,9.184-5.304l27.434-102.434
			C410.662,77.061,409.605,73.948,407.199,72.102z M250.127,89.375c-0.458,0.577-0.824,1.214-1.092,1.889l-62.989,109.013
			l-90.948-52.527l51.019-88.337c8.721-15.099,30.818-27.855,48.254-27.856l89.167-0.006L250.127,89.375z M369.896,171.301
			l-78.359-20.987c1.922-2.344,2.299-5.725,0.695-8.505l-27.525-47.692l36.151-62.568l16.786-0.001
			c17.435-0.001,39.528,12.754,48.243,27.853l17.26,29.901c0.994,1.724,2.632,2.979,4.553,3.494c1.047,0.282,2.133,0.33,3.181,0.152
			L369.896,171.301z"/>
	</g>
</g>
<g>
</g>
<g>
</g>
<g>
</g>
<g>
</g>
<g>
</g>
<g>
</g>
<g>
</g>
<g>
</g>
<g>
</g>
<g>
</g>
<g>
</g>
<g>
</g>
<g>
</g>
<g>
</g>
<g>
</g>
</svg>
