<?xml version="1.0" encoding="iso-8859-1"?>
<!-- Generator: Adobe Illustrator 19.0.0, SVG Export Plug-In . SVG Version: 6.00 Build 0)  -->
<svg version="1.1" id="Layer_1" xmlns="http://www.w3.org/2000/svg" xmlns:xlink="http://www.w3.org/1999/xlink" x="0px" y="0px"
	 viewBox="0 0 512 512" style="enable-background:new 0 0 512 512;" xml:space="preserve">
<g>
	<g>
		<g>
			<path d="M304.053,386.584H156.866c-4.41,0-7.984,3.573-7.984,7.984v42.361c0,4.41,3.573,7.984,7.984,7.984h147.187
				c4.41,0,7.984-3.573,7.984-7.984v-42.361C312.037,390.159,308.462,386.584,304.053,386.584z M296.069,428.945H164.85v-26.394
				h131.219V428.945z"/>
			<path d="M380.8,386.584c-16.082,0-29.164,13.083-29.164,29.164s13.083,29.165,29.164,29.165s29.164-13.083,29.164-29.165
				C409.964,399.667,396.882,386.584,380.8,386.584z M380.8,428.945c-7.277,0-13.196-5.921-13.196-13.198s5.92-13.196,13.196-13.196
				s13.196,5.92,13.196,13.196C393.997,423.025,388.076,428.945,380.8,428.945z"/>
			<path d="M465.264,27.126H46.736C20.966,27.126,0,48.094,0,73.864v364.273c0,25.77,20.966,46.736,46.736,46.736h418.527
				c25.77,0,46.736-20.966,46.736-46.736V73.864C512,48.094,491.034,27.126,465.264,27.126z M126.31,468.906H46.736
				c-16.966,0-30.769-13.803-30.769-30.769V73.864c0-16.967,13.803-30.769,30.769-30.769h79.574
				c-7.214,8.227-11.602,18.993-11.602,30.769v364.273C114.708,449.914,119.096,460.679,126.31,468.906z M496.033,438.137
				c0,16.967-13.803,30.769-30.769,30.769h-303.82c-16.966,0-30.768-13.803-30.768-30.769V73.864
				c0-16.967,13.803-30.769,30.768-30.769h303.82c16.967,0,30.769,13.803,30.769,30.769V438.137z"/>
			<path d="M469.842,64.33H156.866c-4.41,0-7.984,3.573-7.984,7.984v282.118c0,4.41,3.573,7.984,7.984,7.984h312.976
				c4.41,0,7.984-3.573,7.984-7.984V72.314C477.826,67.904,474.252,64.33,469.842,64.33z M164.85,125.098h158.295
				c3.29,0,5.966,2.677,5.966,5.966c0,3.289-2.677,5.968-5.966,5.968H164.85V125.098z M335.349,112.85h14.2v62.57h-28.212v-22.42
				h1.807c12.095,0,21.934-9.839,21.934-21.935C345.08,123.483,341.212,116.79,335.349,112.85z M404.062,346.449h-0.001h-78.331
				v-31.182h11.545c4.41,0,7.984-3.573,7.984-7.984v-39.167h39.274v39.167c0,4.41,3.573,7.984,7.984,7.984h11.545V346.449z
				 M461.858,346.449h-41.83v-39.166c0-4.41-3.573-7.984-7.984-7.984h-11.545v-39.167c0-4.41-3.573-7.984-7.984-7.984h-55.242
				c-4.41,0-7.984,3.573-7.984,7.984v39.167h-11.545c-4.41,0-7.984,3.573-7.984,7.984v39.166H164.85v-193.45h140.52v30.405
				c0,4.41,3.573,7.984,7.984,7.984h27.509v23.536c0,13.251,10.781,24.032,24.033,24.032c13.251,0,24.032-10.781,24.032-24.032
				v-23.536h27.508c4.41,0,7.984-3.573,7.984-7.984v-30.405h37.439V346.449z M372.96,191.387v23.536
				c0,4.447-3.617,8.065-8.065,8.065c-4.447,0-8.066-3.617-8.066-8.065v-23.536H372.96z M365.516,175.419v-62.57h42.936v62.57
				H365.516z M461.858,137.032h-37.439v-11.934h37.439V137.032z M461.858,109.13L461.858,109.13h-37.439v-4.264
				c0-4.41-3.573-7.984-7.984-7.984H313.354c-4.41,0-7.984,3.573-7.984,7.984v4.264H164.85V80.298h297.008V109.13z"/>
			<path d="M448.661,386.584c-16.082,0-29.164,13.083-29.164,29.164s13.083,29.165,29.164,29.165
				c16.081,0,29.164-13.083,29.164-29.165C477.826,399.667,464.743,386.584,448.661,386.584z M448.661,428.945
				c-7.277,0-13.196-5.921-13.196-13.198s5.92-13.196,13.196-13.196c7.277,0,13.196,5.92,13.196,13.196
				C461.858,423.025,455.938,428.945,448.661,428.945z"/>
		</g>
	</g>
</g>
<g>
</g>
<g>
</g>
<g>
</g>
<g>
</g>
<g>
</g>
<g>
</g>
<g>
</g>
<g>
</g>
<g>
</g>
<g>
</g>
<g>
</g>
<g>
</g>
<g>
</g>
<g>
</g>
<g>
</g>
</svg>
