<?xml version="1.0" encoding="iso-8859-1"?>
<!-- Generator: Adobe Illustrator 19.0.0, SVG Export Plug-In . SVG Version: 6.00 Build 0)  -->
<svg version="1.1" id="Capa_1" xmlns="http://www.w3.org/2000/svg" xmlns:xlink="http://www.w3.org/1999/xlink" x="0px" y="0px"
	 viewBox="0 0 512 512" style="enable-background:new 0 0 512 512;" xml:space="preserve">
<g>
	<g>
		<g>
			<path d="M369.021,454.023c0,4.142,3.357,7.5,7.5,7.5h48.321c4.143,0,7.5-3.358,7.5-7.5c0-4.142-3.357-7.5-7.5-7.5h-48.321
				C372.379,446.523,369.021,449.881,369.021,454.023z"/>
			<path d="M175.189,141.646h38.884c4.142,0,7.5-3.358,7.5-7.5c0-4.142-3.358-7.5-7.5-7.5h-38.884c-4.142,0-7.5,3.358-7.5,7.5
				C167.689,138.288,171.047,141.646,175.189,141.646z"/>
			<path d="M252.957,282.869h-38.884c-4.142,0-7.5,3.358-7.5,7.5c0,4.142,3.358,7.5,7.5,7.5h38.884c4.143,0,7.5-3.358,7.5-7.5
				C260.457,286.227,257.1,282.869,252.957,282.869z"/>
			<path d="M190.743,282.869h-38.884c-4.142,0-7.5,3.358-7.5,7.5c0,4.142,3.358,7.5,7.5,7.5h38.884c4.142,0,7.5-3.358,7.5-7.5
				C198.243,286.227,194.885,282.869,190.743,282.869z"/>
			<path d="M88.755,56.035c0,4.142,3.358,7.5,7.5,7.5h18.725c4.142,0,7.5-3.358,7.5-7.5c0-4.142-3.358-7.5-7.5-7.5H96.255
				C92.113,48.535,88.755,51.893,88.755,56.035z"/>
			<path d="M128.529,220.38c-4.142,0-7.5,3.358-7.5,7.5v39.056c0,4.142,3.358,7.5,7.5,7.5c4.142,0,7.5-3.358,7.5-7.5V227.88
				C136.029,223.738,132.671,220.38,128.529,220.38z"/>
			<path d="M128.529,345.358c-4.142,0-7.5,3.358-7.5,7.5v39.056c0,4.142,3.358,7.5,7.5,7.5c4.142,0,7.5-3.358,7.5-7.5v-39.056
				C136.029,348.716,132.671,345.358,128.529,345.358z"/>
			<path d="M128.529,157.891c-4.142,0-7.5,3.358-7.5,7.5v39.056c0,4.142,3.358,7.5,7.5,7.5c4.142,0,7.5-3.358,7.5-7.5v-39.056
				C136.029,161.249,132.671,157.891,128.529,157.891z"/>
			<path d="M405.816,141.191h18.725c4.143,0,7.5-3.358,7.5-7.5c0-4.142-3.357-7.5-7.5-7.5h-18.725c-4.143,0-7.5,3.358-7.5,7.5
				C398.316,137.833,401.674,141.191,405.816,141.191z"/>
			<path d="M405.816,432.402h18.725c4.143,0,7.5-3.358,7.5-7.5c0-4.142-3.357-7.5-7.5-7.5h-18.725c-4.143,0-7.5,3.358-7.5,7.5
				C398.316,429.044,401.674,432.402,405.816,432.402z"/>
			<path d="M283.787,134.146c0-4.142-3.357-7.5-7.5-7.5h-38.883c-4.142,0-7.5,3.358-7.5,7.5c0,4.142,3.358,7.5,7.5,7.5h38.883
				C280.43,141.646,283.787,138.289,283.787,134.146z"/>
			<path d="M405.816,296.504h18.725c4.143,0,7.5-3.358,7.5-7.5c0-4.142-3.357-7.5-7.5-7.5h-18.725c-4.143,0-7.5,3.358-7.5,7.5
				C398.316,293.146,401.674,296.504,405.816,296.504z"/>
			<path d="M465.984,90.748L380.665,5.052C377.422,1.794,373.108,0,368.517,0H134.396c-4.142,0-7.5,3.358-7.5,7.5s3.358,7.5,7.5,7.5
				H365.02v74.176c0,9.488,7.7,17.207,17.164,17.207H456v269.984c0,4.142,3.357,7.5,7.5,7.5s7.5-3.358,7.5-7.5V102.903
				C471,98.313,469.219,93.997,465.984,90.748z M382.183,91.383c-1.193,0-2.164-0.99-2.164-2.207V25.664l65.43,65.719H382.183z"/>
			<path d="M463.5,397.988c-4.143,0-7.5,3.358-7.5,7.5v89.874c0,0.903-0.717,1.638-1.598,1.638H57.598
				c-0.881,0-1.598-0.735-1.598-1.638V16.638C56,15.735,56.717,15,57.598,15h47.844c4.142,0,7.5-3.358,7.5-7.5s-3.358-7.5-7.5-7.5
				H57.598C48.446,0,41,7.464,41,16.638v478.724C41,504.536,48.446,512,57.598,512h396.804c9.152,0,16.598-7.464,16.598-16.638
				v-89.874C471,401.346,467.643,397.988,463.5,397.988z"/>
			<path d="M339.435,142.098c3.752-0.471,6.567-3.661,6.567-7.442v-49.5c0-3.484-2.398-6.509-5.791-7.303L215.782,48.732
				c-0.56-0.131-1.134-0.197-1.709-0.197h-38.884c-4.142,0-7.5,3.358-7.5,7.5c0,21.707-17.568,39.367-39.161,39.367H96.255
				c-4.142,0-7.5,3.358-7.5,7.5v353.063c0,4.142,3.358,7.5,7.5,7.5h180.032c3.589,0,6.674-2.543,7.361-6.065l31.803-163.149
				c0.54-2.768-0.518-5.604-2.74-7.342c-13.439-10.515-21.147-26.336-21.147-43.407v-46.867
				C291.564,168.965,312.145,145.519,339.435,142.098z M288.608,282.868h-12.321c-4.143,0-7.5,3.358-7.5,7.5
				c0,4.142,3.357,7.5,7.5,7.5h23.178l-29.356,150.596h-134.08v-33.118c0-4.142-3.358-7.5-7.5-7.5c-4.142,0-7.5,3.358-7.5,7.5
				v33.118h-17.273V297.868h17.273v31.556c0,4.142,3.358,7.5,7.5,7.5c4.142,0,7.5-3.358,7.5-7.5v-39.056c0-4.142-3.358-7.5-7.5-7.5
				h-24.773V110.401h17.273v16.245h-8.053c-4.142,0-7.5,3.358-7.5,7.5c0,4.142,3.358,7.5,7.5,7.5h8.053v0.311
				c0,4.142,3.358,7.5,7.5,7.5c4.142,0,7.5-3.358,7.5-7.5v-0.311h15.831c4.142,0,7.5-3.358,7.5-7.5c0-4.142-3.358-7.5-7.5-7.5
				h-15.831v-16.764c23.886-3.336,42.837-22.366,46.147-46.347h31.032l117.794,27.569v35.542h-31.384c-4.143,0-7.5,3.358-7.5,7.5
				c0,4.142,3.357,7.5,7.5,7.5h3.57c-16.292,12.899-26.624,32.886-26.624,54.989v46.867
				C276.564,257.806,280.818,271.419,288.608,282.868z"/>
		</g>
	</g>
</g>
<g>
</g>
<g>
</g>
<g>
</g>
<g>
</g>
<g>
</g>
<g>
</g>
<g>
</g>
<g>
</g>
<g>
</g>
<g>
</g>
<g>
</g>
<g>
</g>
<g>
</g>
<g>
</g>
<g>
</g>
</svg>
