<?xml version="1.0" encoding="iso-8859-1"?>
<!-- Generator: Adobe Illustrator 17.1.0, SVG Export Plug-In . SVG Version: 6.00 Build 0)  -->
<!DOCTYPE svg PUBLIC "-//W3C//DTD SVG 1.1//EN" "http://www.w3.org/Graphics/SVG/1.1/DTD/svg11.dtd">
<svg version="1.1" id="Capa_1" xmlns="http://www.w3.org/2000/svg" xmlns:xlink="http://www.w3.org/1999/xlink" x="0px" y="0px"
	 viewBox="0 0 465 465" style="enable-background:new 0 0 465 465;" xml:space="preserve">
<path d="M461.504,78.196c-2.176-1.373-4.905-1.535-7.229-0.43l-39.557,18.837h-226.61c-0.4-3.766-3.584-6.699-7.456-6.699H69.471
	c-17.269,0-31.318,14.05-31.318,31.318s14.05,31.318,31.318,31.318h111.182c3.872,0,7.056-2.933,7.456-6.698h20.995v35.625h-52.908
	c-11.233,0-20.767,7.416-23.963,17.608H85.197l-75.005-28.848c-2.307-0.887-4.901-0.58-6.938,0.817
	C1.217,172.445,0,174.757,0,177.228v203.233c0,2.471,1.217,4.783,3.254,6.183c1.268,0.87,2.751,1.317,4.247,1.317
	c0.907,0,1.82-0.165,2.691-0.5l75.005-28.848h47.035c3.197,10.192,12.73,17.608,23.963,17.608h242.609
	c13.845,0,25.108-11.264,25.108-25.108V206.576c0-13.845-11.264-25.108-25.108-25.108h-52.908v-35.625h68.822l39.557,18.836
	c1.023,0.487,2.125,0.729,3.225,0.729c1.396,0,2.786-0.39,4.004-1.158c2.177-1.374,3.496-3.769,3.496-6.342V84.538
	C465,81.965,463.681,79.57,461.504,78.196z M408.913,130.842H188.152v-19.239h220.761V130.842z M53.152,121.222
	c0-8.998,7.32-16.318,16.318-16.318h103.682v32.637H69.471C60.473,137.541,53.152,130.22,53.152,121.222z M83.805,249.076
	c-4.143,0-7.5,3.357-7.5,7.5v89.387L15,369.542V188.148l61.305,23.579v14.849c0,4.143,3.357,7.5,7.5,7.5s7.5-3.357,7.5-7.5v-12.5
	h39.782v129.538H91.305v-87.038C91.305,252.433,87.947,249.076,83.805,249.076z M408.913,206.576v14.769H245.092
	c-23.435,0-42.5,19.065-42.5,42.5c0,4.143,3.357,7.5,7.5,7.5s7.5-3.357,7.5-7.5c0-15.163,12.337-27.5,27.5-27.5h163.821v85H245.092
	c-15.163,0-27.5-12.337-27.5-27.5c0-4.143-3.357-7.5-7.5-7.5s-7.5,3.357-7.5,7.5c0,23.435,19.065,42.5,42.5,42.5h163.821v14.77
	c0,5.574-4.534,10.108-10.108,10.108H156.195c-5.574,0-10.108-4.534-10.108-10.108V206.576c0-5.574,4.534-10.108,10.108-10.108
	h242.609C404.379,196.467,408.913,201.002,408.913,206.576z M330.896,181.467H224.104v-35.625h106.793V181.467z M450,146.029
	l-26.087-12.422v-24.769L450,96.416V146.029z"/>
<g>
</g>
<g>
</g>
<g>
</g>
<g>
</g>
<g>
</g>
<g>
</g>
<g>
</g>
<g>
</g>
<g>
</g>
<g>
</g>
<g>
</g>
<g>
</g>
<g>
</g>
<g>
</g>
<g>
</g>
</svg>
