<?xml version="1.0" encoding="iso-8859-1"?>
<!-- Generator: Adobe Illustrator 19.0.0, SVG Export Plug-In . SVG Version: 6.00 Build 0)  -->
<svg version="1.1" id="Capa_1" xmlns="http://www.w3.org/2000/svg" xmlns:xlink="http://www.w3.org/1999/xlink" x="0px" y="0px"
	 viewBox="0 0 509.253 509.253" style="enable-background:new 0 0 509.253 509.253;" xml:space="preserve">
<g>
	<path d="M502.524,406.253L24.281,77.46c-4.757-3.271-10.888-3.632-15.997-0.944C3.174,79.204,0,84.46,0,90.233v328.792
		c0,8.547,6.953,15.5,15.5,15.5h478.243c6.828,0,12.777-4.381,14.802-10.902S508.151,410.121,502.524,406.253z M494.22,419.174
		c-0.109,0.352-0.24,0.352-0.478,0.352H423v-8.5c0-4.142-3.358-7.5-7.5-7.5s-7.5,3.358-7.5,7.5v8.5h-17v-24.5
		c0-4.142-3.358-7.5-7.5-7.5s-7.5,3.358-7.5,7.5v24.5h-17v-8.5c0-4.142-3.358-7.5-7.5-7.5s-7.5,3.358-7.5,7.5v8.5h-17v-24.5
		c0-4.142-3.358-7.5-7.5-7.5s-7.5,3.358-7.5,7.5v24.5h-17v-8.5c0-4.142-3.358-7.5-7.5-7.5s-7.5,3.358-7.5,7.5v8.5h-17v-24.5
		c0-4.142-3.358-7.5-7.5-7.5s-7.5,3.358-7.5,7.5v24.5h-17v-8.5c0-4.142-3.358-7.5-7.5-7.5s-7.5,3.358-7.5,7.5v8.5h-17v-24.5
		c0-4.142-3.358-7.5-7.5-7.5s-7.5,3.358-7.5,7.5v24.5h-17v-8.5c0-4.142-3.358-7.5-7.5-7.5s-7.5,3.358-7.5,7.5v8.5h-17v-24.5
		c0-4.142-3.358-7.5-7.5-7.5s-7.5,3.358-7.5,7.5v24.5h-17v-8.5c0-4.142-3.358-7.5-7.5-7.5s-7.5,3.358-7.5,7.5v8.5H71v-24.5
		c0-4.142-3.358-7.5-7.5-7.5s-7.5,3.358-7.5,7.5v24.5H15.5c-0.276,0-0.5-0.224-0.5-0.5V90.233c0-0.127,0-0.302,0.267-0.442
		c0.099-0.052,0.181-0.071,0.25-0.071c0.119,0,0.2,0.056,0.266,0.102l478.243,328.792
		C494.222,418.748,494.329,418.822,494.22,419.174z"/>
	<path d="M291.932,348.845L83.749,205.719c-2.295-1.578-5.276-1.754-7.741-0.458c-2.465,1.297-4.008,3.853-4.008,6.638v143.126
		c0,4.142,3.358,7.5,7.5,7.5h208.183c3.285,0,6.188-2.138,7.163-5.275C295.82,354.113,294.639,350.706,291.932,348.845z M87,347.525
		V226.157l176.536,121.368H87z"/>
</g>
<g>
</g>
<g>
</g>
<g>
</g>
<g>
</g>
<g>
</g>
<g>
</g>
<g>
</g>
<g>
</g>
<g>
</g>
<g>
</g>
<g>
</g>
<g>
</g>
<g>
</g>
<g>
</g>
<g>
</g>
</svg>
