<?xml version="1.0" encoding="iso-8859-1"?>
<!-- Generator: Adobe Illustrator 19.0.0, SVG Export Plug-In . SVG Version: 6.00 Build 0)  -->
<svg version="1.1" id="Capa_1" xmlns="http://www.w3.org/2000/svg" xmlns:xlink="http://www.w3.org/1999/xlink" x="0px" y="0px"
	 viewBox="0 0 511.999 511.999" style="enable-background:new 0 0 511.999 511.999;" xml:space="preserve">
<g>
	<g>
		<path d="M341.699,0.223c-3.995-0.996-8.042,1.437-9.037,5.433l-16.53,66.367c-0.995,3.995,1.437,8.041,5.433,9.037
			c0.605,0.15,1.211,0.223,1.808,0.223c3.344,0,6.384-2.266,7.229-5.656l16.53-66.367C348.127,5.264,345.695,1.218,341.699,0.223z"
			/>
	</g>
</g>
<g>
	<g>
		<path d="M511.769,170.292c-0.995-3.996-5.041-6.43-9.037-5.433l-66.367,16.531c-3.996,0.996-6.428,5.042-5.433,9.037
			c0.845,3.391,3.885,5.656,7.229,5.656c0.596,0,1.203-0.072,1.808-0.223l66.367-16.531
			C510.332,178.334,512.764,174.288,511.769,170.292z"/>
	</g>
</g>
<g>
	<g>
		<path d="M427.489,84.504c-2.912-2.912-7.632-2.913-10.546,0l-41.449,41.448c-2.912,2.912-2.912,7.633,0,10.545
			c1.456,1.456,3.364,2.184,5.273,2.184c1.908,0,3.816-0.728,5.273-2.184l41.449-41.448
			C430.401,92.137,430.401,87.416,427.489,84.504z"/>
	</g>
</g>
<g>
	<g>
		<path d="M430.77,236.767c-0.558-2.811-1.932-5.395-4.003-7.468L282.692,85.226c-0.345-0.345-0.705-0.671-1.078-0.978
			c-2.608-2.143-5.848-3.308-9.267-3.308c-3.908,0-7.582,1.522-10.344,4.285l-26.469,26.469c-0.272,0.272-0.509,0.563-0.73,0.864
			c-0.02,0.027-0.046,0.05-0.066,0.078l-63.737,89.316c-8.191,11.373-6.962,26.807,2.904,36.745L61.46,351.14
			c-2.912,2.912-2.912,7.633,0,10.545s7.632,2.912,10.546,0l112.442-112.442l78.3,78.301L97.372,492.92
			c-2.686,2.687-6.258,4.166-10.057,4.166c-3.8,0-7.372-1.479-10.058-4.166l-58.185-58.184c-5.546-5.546-5.546-14.57-0.001-20.116
			l23.027-23.026c2.913-2.912,2.913-7.632,0.001-10.545c-2.913-2.912-7.634-2.912-10.545,0L8.526,404.075
			c-11.359,11.361-11.359,29.845,0,41.206l7.799,7.799l-3.248,3.248c-5.688,5.687-8.821,13.249-8.821,21.294
			c0,8.044,3.133,15.606,8.821,21.294c5.87,5.87,13.582,8.806,21.293,8.806s15.423-2.935,21.294-8.806l3.249-3.248l7.798,7.797
			c5.504,5.503,12.82,8.534,20.604,8.534c7.782,0,15.099-3.031,20.603-8.534l165.378-165.378c5.539,5.499,12.783,8.315,20.077,8.315
			c5.795,0,11.619-1.776,16.643-5.394l21.639-15.441c3.352-2.392,4.13-7.048,1.739-10.4c-2.393-3.353-7.051-4.13-10.401-1.738
			l-21.666,15.46c-5.437,3.917-12.825,3.32-17.562-1.419l-5.192-5.192c-0.002-0.002-0.003-0.004-0.005-0.005l-88.845-88.845
			c-0.003-0.003-0.007-0.006-0.01-0.009l-5.189-5.189c-4.738-4.738-5.335-12.125-1.4-17.589l58.64-82.174l141.763,141.762
			l-27.261,19.453c-3.352,2.392-4.13,7.049-1.739,10.4c2.392,3.351,7.048,4.131,10.401,1.738l34.429-24.568
			c0.03-0.021,0.055-0.05,0.084-0.072c0.298-0.22,0.588-0.456,0.857-0.725l26.468-26.468c2.763-2.763,4.285-6.436,4.285-10.344
			C431.051,238.666,430.956,237.704,430.77,236.767z M45.119,488.371c-5.927,5.927-15.571,5.926-21.498,0
			c-2.872-2.871-4.453-6.689-4.453-10.749c0-4.061,1.582-7.878,4.452-10.749l3.249-3.249l21.499,21.498L45.119,488.371z
			 M395.026,260.639L251.353,116.966l20.995-20.995l143.673,143.673L395.026,260.639z"/>
	</g>
</g>
<g>
	<g>
		<path d="M201.317,310.674c-6.256-6.256-14.574-9.702-23.421-9.702c-8.848,0-17.166,3.446-23.421,9.702
			c-6.257,6.256-9.703,14.574-9.703,23.422c0,8.848,3.446,17.165,9.702,23.422c6.256,6.257,14.575,9.702,23.422,9.702
			c8.847,0,17.165-3.446,23.421-9.702C214.232,344.603,214.232,323.589,201.317,310.674z M190.774,346.973
			c-3.441,3.439-8.014,5.334-12.878,5.334c-4.865,0-9.438-1.894-12.878-5.334c-3.44-3.439-5.334-8.013-5.334-12.877
			s1.894-9.437,5.335-12.877c3.439-3.44,8.012-5.334,12.877-5.334c4.864,0,9.437,1.895,12.877,5.334c7.1,7.1,7.1,18.654,0,25.754
			H190.774z"/>
	</g>
</g>
<g>
</g>
<g>
</g>
<g>
</g>
<g>
</g>
<g>
</g>
<g>
</g>
<g>
</g>
<g>
</g>
<g>
</g>
<g>
</g>
<g>
</g>
<g>
</g>
<g>
</g>
<g>
</g>
<g>
</g>
</svg>
